# xmcd CD database file
#
# Track frame offsets:
#	150
#	18189
#	36233
#	54965
#	69516
#	86374
#
# Disc length: 1409 seconds
#
# Revision: 0
# Processed by: cddbd v1.5.1PL0 Copyright (c) Steve Scherf et al.
# Submitted via: CDex 1.51
#
DISCID=3e057f06
DTITLE=Den Hanrahan - Den Hanrahan
DYEAR=2004
DGENRE=Country
TTITLE0=Hi - Way 32
TTITLE1=Red Dust
TTITLE2=# Hope You Understand
TTITLE3=This Ol' Train
TTITLE4=The Colour Of Your Eyes
TTITLE5=Stealin" Cars
EXTD=YEAR: 2004
EXTT0=
EXTT1=
EXTT2=
EXTT3=
EXTT4=
EXTT5=
PLAYORDER=
